<mxfile host="app.diagrams.net" modified="2024-05-22T13:19:45.014Z" agent="Mozilla/5.0 (Windows NT 10.0; Win64; x64) AppleWebKit/537.36 (KHTML, like Gecko) Chrome/124.0.0.0 Safari/537.36" etag="PqKc0roojBCR_-kDhMQK" version="24.4.0" type="device">
  <diagram name="Page-1" id="dbHLMYXBEQtooXquU4ag">
    <mxGraphModel dx="2350" dy="1896" grid="1" gridSize="10" guides="1" tooltips="1" connect="1" arrows="1" fold="1" page="1" pageScale="1" pageWidth="850" pageHeight="1100" math="0" shadow="0">
      <root>
        <mxCell id="0" />
        <mxCell id="1" parent="0" />
        <mxCell id="QRzCTK7IFM_TcBgtwzuK-7" style="edgeStyle=orthogonalEdgeStyle;rounded=0;orthogonalLoop=1;jettySize=auto;html=1;entryX=0.5;entryY=0;entryDx=0;entryDy=0;" edge="1" parent="1" source="QRzCTK7IFM_TcBgtwzuK-3" target="QRzCTK7IFM_TcBgtwzuK-9">
          <mxGeometry relative="1" as="geometry">
            <mxPoint x="420" y="20" as="targetPoint" />
          </mxGeometry>
        </mxCell>
        <mxCell id="QRzCTK7IFM_TcBgtwzuK-3" value="" style="ellipse;whiteSpace=wrap;html=1;" vertex="1" parent="1">
          <mxGeometry x="360" y="-160" width="120" height="80" as="geometry" />
        </mxCell>
        <mxCell id="QRzCTK7IFM_TcBgtwzuK-4" value="&lt;font style=&quot;font-size: 19px;&quot;&gt;&lt;b&gt;Lưới điện&lt;/b&gt;&lt;/font&gt;" style="text;html=1;align=center;verticalAlign=middle;whiteSpace=wrap;rounded=0;" vertex="1" parent="1">
          <mxGeometry x="365" y="-150" width="110" height="60" as="geometry" />
        </mxCell>
        <mxCell id="QRzCTK7IFM_TcBgtwzuK-8" style="edgeStyle=orthogonalEdgeStyle;rounded=0;orthogonalLoop=1;jettySize=auto;html=1;exitX=0.5;exitY=1;exitDx=0;exitDy=0;" edge="1" parent="1" source="QRzCTK7IFM_TcBgtwzuK-5" target="QRzCTK7IFM_TcBgtwzuK-9">
          <mxGeometry relative="1" as="geometry">
            <mxPoint x="600" y="20" as="targetPoint" />
          </mxGeometry>
        </mxCell>
        <mxCell id="QRzCTK7IFM_TcBgtwzuK-5" value="" style="ellipse;whiteSpace=wrap;html=1;" vertex="1" parent="1">
          <mxGeometry x="560" y="-160" width="120" height="80" as="geometry" />
        </mxCell>
        <mxCell id="QRzCTK7IFM_TcBgtwzuK-6" value="&lt;font style=&quot;font-size: 19px;&quot;&gt;&lt;b&gt;Máy Phát&lt;/b&gt;&lt;/font&gt;" style="text;html=1;align=center;verticalAlign=middle;whiteSpace=wrap;rounded=0;" vertex="1" parent="1">
          <mxGeometry x="565" y="-150" width="110" height="60" as="geometry" />
        </mxCell>
        <mxCell id="QRzCTK7IFM_TcBgtwzuK-27" style="edgeStyle=orthogonalEdgeStyle;rounded=0;orthogonalLoop=1;jettySize=auto;html=1;exitX=0.5;exitY=1;exitDx=0;exitDy=0;entryX=0.5;entryY=0;entryDx=0;entryDy=0;" edge="1" parent="1" source="QRzCTK7IFM_TcBgtwzuK-9" target="QRzCTK7IFM_TcBgtwzuK-10">
          <mxGeometry relative="1" as="geometry" />
        </mxCell>
        <mxCell id="QRzCTK7IFM_TcBgtwzuK-28" style="edgeStyle=orthogonalEdgeStyle;rounded=0;orthogonalLoop=1;jettySize=auto;html=1;exitX=0.5;exitY=1;exitDx=0;exitDy=0;entryX=0.5;entryY=0;entryDx=0;entryDy=0;" edge="1" parent="1" source="QRzCTK7IFM_TcBgtwzuK-9" target="QRzCTK7IFM_TcBgtwzuK-11">
          <mxGeometry relative="1" as="geometry" />
        </mxCell>
        <mxCell id="QRzCTK7IFM_TcBgtwzuK-29" style="edgeStyle=orthogonalEdgeStyle;rounded=0;orthogonalLoop=1;jettySize=auto;html=1;exitX=0.5;exitY=1;exitDx=0;exitDy=0;entryX=0.5;entryY=0;entryDx=0;entryDy=0;" edge="1" parent="1" source="QRzCTK7IFM_TcBgtwzuK-9" target="QRzCTK7IFM_TcBgtwzuK-12">
          <mxGeometry relative="1" as="geometry" />
        </mxCell>
        <mxCell id="QRzCTK7IFM_TcBgtwzuK-9" value="&lt;font style=&quot;font-size: 16px;&quot;&gt;&lt;b&gt;SWITCH khi mất điện&lt;/b&gt;&lt;/font&gt;" style="rounded=1;whiteSpace=wrap;html=1;" vertex="1" parent="1">
          <mxGeometry x="460" y="10" width="120" height="60" as="geometry" />
        </mxCell>
        <mxCell id="QRzCTK7IFM_TcBgtwzuK-25" style="edgeStyle=orthogonalEdgeStyle;rounded=0;orthogonalLoop=1;jettySize=auto;html=1;exitX=0.5;exitY=1;exitDx=0;exitDy=0;entryX=0.5;entryY=0;entryDx=0;entryDy=0;" edge="1" parent="1" source="QRzCTK7IFM_TcBgtwzuK-10" target="QRzCTK7IFM_TcBgtwzuK-19">
          <mxGeometry relative="1" as="geometry" />
        </mxCell>
        <mxCell id="QRzCTK7IFM_TcBgtwzuK-10" value="&lt;font style=&quot;font-size: 16px;&quot;&gt;&lt;b&gt;Phòng hội nghị&lt;/b&gt;&lt;/font&gt;" style="whiteSpace=wrap;html=1;aspect=fixed;" vertex="1" parent="1">
          <mxGeometry x="80" y="120" width="80" height="80" as="geometry" />
        </mxCell>
        <mxCell id="QRzCTK7IFM_TcBgtwzuK-26" style="edgeStyle=orthogonalEdgeStyle;rounded=0;orthogonalLoop=1;jettySize=auto;html=1;exitX=0.5;exitY=1;exitDx=0;exitDy=0;entryX=0.5;entryY=0;entryDx=0;entryDy=0;" edge="1" parent="1" source="QRzCTK7IFM_TcBgtwzuK-11" target="QRzCTK7IFM_TcBgtwzuK-20">
          <mxGeometry relative="1" as="geometry" />
        </mxCell>
        <mxCell id="QRzCTK7IFM_TcBgtwzuK-11" value="&lt;font style=&quot;font-size: 16px;&quot;&gt;&lt;b&gt;Điều hòa&lt;/b&gt;&lt;/font&gt;" style="whiteSpace=wrap;html=1;aspect=fixed;" vertex="1" parent="1">
          <mxGeometry x="320" y="120" width="80" height="80" as="geometry" />
        </mxCell>
        <mxCell id="QRzCTK7IFM_TcBgtwzuK-23" style="edgeStyle=orthogonalEdgeStyle;rounded=0;orthogonalLoop=1;jettySize=auto;html=1;exitX=0.5;exitY=1;exitDx=0;exitDy=0;" edge="1" parent="1" source="QRzCTK7IFM_TcBgtwzuK-12" target="QRzCTK7IFM_TcBgtwzuK-21">
          <mxGeometry relative="1" as="geometry" />
        </mxCell>
        <mxCell id="QRzCTK7IFM_TcBgtwzuK-24" style="edgeStyle=orthogonalEdgeStyle;rounded=0;orthogonalLoop=1;jettySize=auto;html=1;exitX=0.5;exitY=1;exitDx=0;exitDy=0;entryX=0.5;entryY=0;entryDx=0;entryDy=0;" edge="1" parent="1" source="QRzCTK7IFM_TcBgtwzuK-12" target="QRzCTK7IFM_TcBgtwzuK-22">
          <mxGeometry relative="1" as="geometry" />
        </mxCell>
        <mxCell id="QRzCTK7IFM_TcBgtwzuK-12" value="&lt;font style=&quot;font-size: 16px;&quot;&gt;&lt;b&gt;Nhà bếp&lt;/b&gt;&lt;/font&gt;" style="whiteSpace=wrap;html=1;aspect=fixed;" vertex="1" parent="1">
          <mxGeometry x="560" y="120" width="80" height="80" as="geometry" />
        </mxCell>
        <mxCell id="QRzCTK7IFM_TcBgtwzuK-16" value="" style="endArrow=none;dashed=1;html=1;dashPattern=1 3;strokeWidth=7;rounded=0;" edge="1" parent="1">
          <mxGeometry width="50" height="50" relative="1" as="geometry">
            <mxPoint x="880" y="159.29" as="sourcePoint" />
            <mxPoint x="990" y="159.29" as="targetPoint" />
          </mxGeometry>
        </mxCell>
        <mxCell id="QRzCTK7IFM_TcBgtwzuK-17" value="&lt;font style=&quot;font-size: 20px;&quot;&gt;&lt;b&gt;Tổng cộng có 12 tủ điện chính&lt;/b&gt;&lt;/font&gt;" style="text;html=1;align=center;verticalAlign=middle;whiteSpace=wrap;rounded=0;" vertex="1" parent="1">
          <mxGeometry x="-180" y="120" width="220" height="80" as="geometry" />
        </mxCell>
        <mxCell id="QRzCTK7IFM_TcBgtwzuK-45" style="edgeStyle=orthogonalEdgeStyle;rounded=0;orthogonalLoop=1;jettySize=auto;html=1;exitX=0.5;exitY=1;exitDx=0;exitDy=0;entryX=0.5;entryY=0;entryDx=0;entryDy=0;" edge="1" parent="1" source="QRzCTK7IFM_TcBgtwzuK-19" target="QRzCTK7IFM_TcBgtwzuK-38">
          <mxGeometry relative="1" as="geometry" />
        </mxCell>
        <mxCell id="QRzCTK7IFM_TcBgtwzuK-19" value="&lt;font style=&quot;font-size: 16px;&quot;&gt;&lt;b&gt;Phòng hội nghị&lt;/b&gt;&lt;/font&gt;" style="whiteSpace=wrap;html=1;aspect=fixed;" vertex="1" parent="1">
          <mxGeometry x="80" y="280" width="80" height="80" as="geometry" />
        </mxCell>
        <mxCell id="QRzCTK7IFM_TcBgtwzuK-42" style="edgeStyle=orthogonalEdgeStyle;rounded=0;orthogonalLoop=1;jettySize=auto;html=1;exitX=0.5;exitY=1;exitDx=0;exitDy=0;entryX=0.5;entryY=0;entryDx=0;entryDy=0;" edge="1" parent="1" source="QRzCTK7IFM_TcBgtwzuK-20" target="QRzCTK7IFM_TcBgtwzuK-39">
          <mxGeometry relative="1" as="geometry" />
        </mxCell>
        <mxCell id="QRzCTK7IFM_TcBgtwzuK-20" value="&lt;font style=&quot;font-size: 16px;&quot;&gt;&lt;b&gt;Điều hòa&lt;/b&gt;&lt;/font&gt;" style="whiteSpace=wrap;html=1;aspect=fixed;" vertex="1" parent="1">
          <mxGeometry x="320" y="280" width="80" height="80" as="geometry" />
        </mxCell>
        <mxCell id="QRzCTK7IFM_TcBgtwzuK-44" style="edgeStyle=orthogonalEdgeStyle;rounded=0;orthogonalLoop=1;jettySize=auto;html=1;exitX=0.5;exitY=1;exitDx=0;exitDy=0;entryX=0.5;entryY=0;entryDx=0;entryDy=0;" edge="1" parent="1" source="QRzCTK7IFM_TcBgtwzuK-21" target="QRzCTK7IFM_TcBgtwzuK-40">
          <mxGeometry relative="1" as="geometry" />
        </mxCell>
        <mxCell id="QRzCTK7IFM_TcBgtwzuK-21" value="&lt;font style=&quot;font-size: 16px;&quot;&gt;&lt;b&gt;Nhà bếp 1&lt;/b&gt;&lt;/font&gt;" style="whiteSpace=wrap;html=1;aspect=fixed;" vertex="1" parent="1">
          <mxGeometry x="560" y="280" width="80" height="80" as="geometry" />
        </mxCell>
        <mxCell id="QRzCTK7IFM_TcBgtwzuK-22" value="&lt;font style=&quot;font-size: 16px;&quot;&gt;&lt;b&gt;Nhà bếp 2&lt;/b&gt;&lt;/font&gt;" style="whiteSpace=wrap;html=1;aspect=fixed;" vertex="1" parent="1">
          <mxGeometry x="680" y="280" width="80" height="80" as="geometry" />
        </mxCell>
        <mxCell id="QRzCTK7IFM_TcBgtwzuK-33" value="&lt;font style=&quot;font-size: 20px;&quot;&gt;&lt;b&gt;Các tủ điện thứ cấp sử dụng để quản lý phân chia ra các tủ sơ cấp nhỏ hơn&lt;/b&gt;&lt;/font&gt;" style="text;html=1;align=center;verticalAlign=middle;whiteSpace=wrap;rounded=0;" vertex="1" parent="1">
          <mxGeometry x="-220" y="280" width="260" height="80" as="geometry" />
        </mxCell>
        <mxCell id="QRzCTK7IFM_TcBgtwzuK-38" value="&lt;span style=&quot;font-size: 16px;&quot;&gt;&lt;b&gt;Phòng hội nghị sẽ được chia thành các ô và mỗi ô sẽ được 1 tủ điện sơ cấp quản lý&lt;/b&gt;&lt;/span&gt;" style="whiteSpace=wrap;html=1;aspect=fixed;" vertex="1" parent="1">
          <mxGeometry x="40" y="400" width="160" height="160" as="geometry" />
        </mxCell>
        <mxCell id="QRzCTK7IFM_TcBgtwzuK-39" value="&lt;font style=&quot;font-size: 16px;&quot;&gt;&lt;b&gt;Quản lý tất cả điều hòa tại các phòng&lt;/b&gt;&lt;/font&gt;" style="whiteSpace=wrap;html=1;aspect=fixed;" vertex="1" parent="1">
          <mxGeometry x="280" y="400" width="160" height="160" as="geometry" />
        </mxCell>
        <mxCell id="QRzCTK7IFM_TcBgtwzuK-40" value="&lt;font style=&quot;font-size: 16px;&quot;&gt;&lt;b&gt;Bao gồm tủ điện của phòng lạnh, tủ điện phòng làm bánh, tủ điện của các thiết bị khác ....&lt;/b&gt;&lt;/font&gt;" style="whiteSpace=wrap;html=1;aspect=fixed;" vertex="1" parent="1">
          <mxGeometry x="520" y="400" width="160" height="160" as="geometry" />
        </mxCell>
        <mxCell id="QRzCTK7IFM_TcBgtwzuK-43" value="&lt;font style=&quot;font-size: 20px;&quot;&gt;&lt;b&gt;Các tủ điện sơ cấp&lt;/b&gt;&lt;/font&gt;" style="text;html=1;align=center;verticalAlign=middle;whiteSpace=wrap;rounded=0;" vertex="1" parent="1">
          <mxGeometry x="-230" y="440" width="260" height="80" as="geometry" />
        </mxCell>
        <mxCell id="QRzCTK7IFM_TcBgtwzuK-46" value="" style="endArrow=none;dashed=1;html=1;dashPattern=1 3;strokeWidth=7;rounded=0;" edge="1" parent="1">
          <mxGeometry width="50" height="50" relative="1" as="geometry">
            <mxPoint x="880" y="319.29" as="sourcePoint" />
            <mxPoint x="990" y="319.29" as="targetPoint" />
          </mxGeometry>
        </mxCell>
        <mxCell id="QRzCTK7IFM_TcBgtwzuK-47" value="" style="endArrow=none;dashed=1;html=1;dashPattern=1 3;strokeWidth=7;rounded=0;" edge="1" parent="1">
          <mxGeometry width="50" height="50" relative="1" as="geometry">
            <mxPoint x="880" y="479.29" as="sourcePoint" />
            <mxPoint x="990" y="479.29" as="targetPoint" />
          </mxGeometry>
        </mxCell>
      </root>
    </mxGraphModel>
  </diagram>
</mxfile>
